<svg id="header-logo-svg" xmlns="http://www.w3.org/2000/svg" version="1.1" x="0" y="0" viewBox="0 203 960 154" enable-background="new 0 203 960 154" xml:space="preserve"><path fill="#231F20" d="M903.5 353.3c-31.3 0-56.5-25.3-56.5-56.5s25.3-56.5 56.5-56.5c31.3 0 56.5 25.3 56.5 56.5C960 327.7 934.4 353.3 903.5 353.3zM903.5 246.6c-27.6 0-50.2 22.6-50.2 50.2 0 27.6 22.6 50.2 50.2 50.2 27.6 0 50.2-22.6 50.2-50.2C953.7 268.9 931.1 246.6 903.5 246.6zM903.5 352.3c-30.6 0-55.5-24.9-55.5-55.5s24.9-55.5 55.5-55.5c30.6 0 55.5 24.9 55.5 55.5C959 327.4 934.1 352.3 903.5 352.3zM903.5 245.6c-28.3 0-51.2 22.9-51.2 51.2 0 28.3 22.9 51.2 51.2 51.2 28.3 0 51.2-22.9 51.2-51.2C954.3 268.5 931.4 245.6 903.5 245.6zM788.4 353.3c-31.3 0-56.5-25.3-56.5-56.5s25.3-56.5 56.5-56.5c15.3 0 29.6 6 40.2 16.6l1.3 1.3 -4.7 4.3 -1.3-1.3c-9.6-9.6-22.3-15-35.6-15 -27.6 0-50.2 22.6-50.2 50.2s22.6 50.2 50.2 50.2c13.6 0 26.3-5.3 35.6-14.6l1.3-1.3 4.7 4.3 -1.3 1.3C818 347.3 803.7 353.3 788.4 353.3zM788.4 352.3c-30.6 0-55.5-24.9-55.5-55.5s24.9-55.5 55.5-55.5c15 0 28.9 6 39.6 16.6l0.7 0.7 -3.3 3 -0.7-0.7c-9.6-9.6-22.6-15.3-36.2-15.3 -28.3 0-51.2 22.9-51.2 51.2 0 28.3 22.9 51.2 51.2 51.2 13.6 0 26.6-5.3 36.2-15l0.7-0.7 3.3 3L828 336C817.3 346.3 803.4 352.3 788.4 352.3zM674 353.3c-31.3 0-56.5-25.3-56.5-56.5s25.3-56.5 56.5-56.5c15.3 0 29.3 6 40.2 16.6l1.3 1.3 -4.3 4.3 -1.3-1.3c-9.6-9.6-22.3-15-35.6-15 -27.6 0-50.2 22.6-50.2 50.2s22.6 50.2 50.2 50.2c13.6 0 26.3-5.3 35.6-15l1.3-1.3 4.7 4.3 -1.3 1.3C703.6 347.3 689.3 353.3 674 353.3zM674 352.3c-30.6 0-55.5-24.9-55.5-55.5s24.9-55.5 55.5-55.5c15 0 28.9 6 39.6 16.6l0.7 0.7 -3 3 -0.7-0.7c-9.6-9.6-22.6-15.3-36.2-15.3 -28.3 0-51.2 22.9-51.2 51.2 0 28.3 22.9 51.2 51.2 51.2 13.6 0 26.6-5.3 36.2-15l0.7-0.7 3 3 -0.7 0.7C703 346.3 689 352.3 674 352.3z"></path><rect x="586.9" y="241.3" fill="#231F20" width="6.3" height="110.7"></rect><rect x="587.9" y="242.3" fill="#231F20" width="4.3" height="108.7"></rect><polygon fill="#231F20" points="551 352 551 299.8 479.2 299.8 479.2 352 472.9 352 472.9 241.3 479.2 241.3 479.2 293.5 551 293.5 551 241.3 557.3 241.3 557.3 352 "></polygon><polygon fill="#231F20" points="556.3 351 551.7 351 551.7 298.8 478.2 298.8 478.2 351 473.8 351 473.8 242.3 478.2 242.3 478.2 294.5 551.7 294.5 551.7 242.3 556.3 242.3 "></polygon><path fill="#231F20" d="M406.7 353.3c-31.3 0-56.5-25.3-56.5-56.5s25.3-56.5 56.5-56.5c15.3 0 29.3 6 40.2 16.6l1.3 1.3 -4.3 4.7 -1.3-1.3c-9.6-9.6-22.3-15-35.6-15 -27.6 0-50.2 22.6-50.2 50.2S379.4 347 407 347c13.6 0 26.3-5.3 35.6-14.6l1.3-1.3 4.7 4.3 -1.3 1.3C435.9 347.3 421.6 353.3 406.7 353.3zM406.7 352.3c-30.6 0-55.5-24.9-55.5-55.5s24.9-55.5 55.5-55.5c15 0 28.9 6 39.6 16.6l0.7 0.7 -3 3 -0.7-0.7c-9.6-9.6-22.6-15.3-36.2-15.3 -28.3 0-51.2 22.9-51.2 51.2 0 28.3 22.9 51.2 51.2 51.2 13.6 0 26.6-5.3 36.2-15l0.7-0.7 3 3 -0.7 0.7C435.6 346.3 421.6 352.3 406.7 352.3z"></path><polygon fill="#231F20" points="0 352 0 347 66.8 247.6 0 247.6 0 241.3 75.5 241.3 75.5 246.2 8.6 345.7 75.5 345.7 75.5 352 "></polygon><polygon fill="#231F20" points="74.5 351 1 351 1 347.3 1 347 68.5 246.6 1 246.6 1 242.3 74.5 242.3 74.5 245.9 7 346.7 74.5 346.7 "></polygon><path fill="#231F20" d="M144.6 353.3c-31.3 0-56.5-25.3-56.5-56.5s25.3-56.5 56.5-56.5 56.5 25.3 56.5 56.5C201.5 327.7 175.9 353.3 144.6 353.3zM144.6 246.6c-27.6 0-50.2 22.6-50.2 50.2 0 27.6 22.6 50.2 50.2 50.2s50.2-22.6 50.2-50.2C195.2 268.9 172.6 246.6 144.6 246.6zM144.6 352.3c-30.6 0-55.5-24.9-55.5-55.5s24.9-55.5 55.5-55.5 55.5 24.9 55.5 55.5C200.5 327.4 175.6 352.3 144.6 352.3zM144.6 245.6c-28.3 0-51.2 22.9-51.2 51.2 0 28.3 22.9 51.2 51.2 51.2s51.2-22.9 51.2-51.2C195.9 268.5 172.9 245.6 144.6 245.6zM279.7 217.3c-3 0-5.3-2.3-5.3-5.3s2.3-5.3 5.3-5.3c3 0 5.3 2.3 5.3 5.3S282.6 217.3 279.7 217.3zM279.7 216.3c-2.3 0-4.3-2-4.3-4.3 0-2.3 2-4.3 4.3-4.3 2.3 0 4.3 2 4.3 4.3C284 214.3 282 216.3 279.7 216.3zM245.7 217.3c-3 0-5.3-2.3-5.3-5.3s2.3-5.3 5.3-5.3c3 0 5.3 2.3 5.3 5.3S248.7 217.3 245.7 217.3zM245.7 216.3c-2.3 0-4.3-2-4.3-4.3 0-2.3 2-4.3 4.3-4.3 2.3 0 4.3 2 4.3 4.3C250.1 214.3 248.1 216.3 245.7 216.3z"></path><polygon fill="#231F20" points="226.4 352 226.4 241.3 296.3 241.3 296.3 247.6 233.1 247.6 233.1 293.5 281.6 293.5 281.6 299.8 233.1 299.8 233.1 345.7 296.3 345.7 296.3 352 "></polygon><polygon fill="#231F20" points="295.3 351 227.4 351 227.4 242.3 295.3 242.3 295.3 246.6 232.1 246.6 232.1 294.5 280.7 294.5 280.7 298.8 232.1 298.8 232.1 346.7 295.3 346.7 "></polygon></svg>