<svg id="图层_1" data-name="图层 1" xmlns="http://www.w3.org/2000/svg" viewBox="0 0 1417.32 1193.95"><defs><style>.cls-1{fill:none;stroke:#fff;stroke-miterlimit:10;stroke-width:25px;}</style></defs><title>画板 1logo</title><path class="cls-1" d="M1410,499.21C1374.79,262.33,1179.54,60.66,942.9,20.66,775.68-7.61,606.47-3,437.85-.09L435,0C336.5-4.08,237.64-1.8,139-.09,61.09,1.27,16.31,45.66,4.6,120A408.92,408.92,0,0,0,0,182.73Q-.58,452.88-.25,723q0,149.68,0,299.36C-.09,1142.29,51,1193.47,171.1,1193.93c44.4.17,174.07-.82,261.92-2a343.86,343.86,0,0,0,36.94,2l337.53-3.38c38.88-1.24,78.24-2.86,116.36-9.88C1248.94,1120.77,1458.68,826,1410,499.21Z"/><path class="cls-1" d="M625,1180.67c-38.12,7-77.48,8.64-116.35,9.88-14.12.45-41.61.93-75.27,1.38-93.95-10.4-134.62-62.64-134.74-169.55q-.18-149.68,0-299.36,0-270.15.21-540.29A410.17,410.17,0,0,1,303.45,120C315,46.46,359,2.25,435.37,0,505.15,2.89,574.77,9,644,20.66c236.65,40,431.9,241.67,467.15,478.55C1159.83,826,950.09,1120.77,625,1180.67Z"/></svg>